<svg width="42" height="42" viewBox="0 0 42 42" fill="none" xmlns="http://www.w3.org/2000/svg">
    <g clip-path="url(#clip0_641_392)">
        <path
            d="M12.2638 19.1498L11.2603 0H29.2194C29.8692 0.00113319 30.5072 0.173996 31.0699 0.501341C31.6326 0.828685 32.1001 1.29914 32.4259 1.86552L41.9248 18.447C41.9687 18.5237 41.9919 18.6106 41.992 18.6991C41.9922 18.7875 41.9692 18.8746 41.9255 18.9513C41.8818 19.0281 41.8189 19.0919 41.7431 19.1365C41.6672 19.1811 41.5811 19.2048 41.4932 19.2053L12.2638 19.1498Z"
            fill="url(#paint0_linear_641_392)" />
        <path
            d="M31.3117 8.06836H19.7605C18.9346 8.06836 18.2651 8.74284 18.2651 9.57486C18.2651 10.4069 18.9346 11.0814 19.7605 11.0814H31.3117C32.1376 11.0814 32.8071 10.4069 32.8071 9.57486C32.8071 8.74284 32.1376 8.06836 31.3117 8.06836Z"
            fill="white" />
        <path
            d="M29.7312 22.85L30.7348 41.9998H12.7757C12.1257 41.9997 11.4872 41.8272 10.9244 41.4998C10.3616 41.1723 9.89419 40.7014 9.56922 40.1344L0.0652427 23.5527C0.0211157 23.4757 -0.00204007 23.3884 -0.00195288 23.2995C-0.00186569 23.2106 0.021516 23.1233 0.065794 23.0463C0.110072 22.9694 0.173669 22.9057 0.25023 22.8615C0.32679 22.8172 0.413547 22.7941 0.501799 22.7944L29.7312 22.85Z"
            fill="url(#paint1_linear_641_392)" />
        <path
            d="M14.647 33.9113L18.4005 40.4529C18.6645 40.9135 19.044 41.2961 19.5011 41.5623C19.9582 41.8285 20.4768 41.969 21.0047 41.9695H28.5316C29.0596 41.969 29.5782 41.8285 30.0353 41.5623C30.4924 41.2961 30.872 40.9135 31.136 40.4529L34.8843 33.9113C35.1486 33.4502 35.2877 32.9271 35.2877 32.3947C35.2877 31.8622 35.1486 31.3392 34.8843 30.8781L31.136 24.3364C30.872 23.8758 30.4924 23.4932 30.0353 23.227C29.5782 22.9608 29.0596 22.8204 28.5316 22.8198H21.0047C20.4768 22.8204 19.9582 22.9608 19.5011 23.227C19.044 23.4932 18.6645 23.8758 18.4005 24.3364L14.647 30.8781C14.3828 31.3392 14.2437 31.8622 14.2437 32.3947C14.2437 32.9271 14.3828 33.4502 14.647 33.9113Z"
            fill="white" />
        <path
            d="M24.4673 8.05835L20.7139 1.51661C20.4499 1.05596 20.0703 0.673363 19.6132 0.407169C19.1561 0.140976 18.6376 0.000545588 18.1096 0H10.5827C10.0547 0.000545588 9.53616 0.140976 9.07906 0.407169C8.62196 0.673363 8.24238 1.05596 7.97839 1.51661L4.23002 8.05835C3.96577 8.51946 3.82666 9.04252 3.82666 9.57496C3.82666 10.1074 3.96577 10.6305 4.23002 11.0916L7.97839 17.6332C8.24238 18.0938 8.62196 18.4764 9.07906 18.7426C9.53616 19.0088 10.0547 19.1493 10.5827 19.1498H18.1096C18.6376 19.1493 19.1561 19.0088 19.6132 18.7426C20.0703 18.4764 20.4499 18.0938 20.7139 17.6332L24.4673 11.0916C24.7315 10.6305 24.8707 10.1074 24.8707 9.57496C24.8707 9.04252 24.7315 8.51946 24.4673 8.05835Z"
            fill="#2B9348" />
        <path fill-rule="evenodd" clip-rule="evenodd"
            d="M20.7139 17.6332L24.4673 11.0916C24.7315 10.6305 24.8707 10.1074 24.8707 9.57496C24.8707 9.04252 24.7315 8.51946 24.4673 8.05835L20.7139 1.51661C20.4499 1.05596 20.0703 0.673363 19.6132 0.407169C19.1561 0.140976 18.6376 0.000545588 18.1096 0H10.5827C10.0547 0.000545588 9.53616 0.140976 9.07906 0.407169C8.62196 0.673363 8.24238 1.05596 7.97839 1.51661L4.23002 8.05835C3.96577 8.51946 3.82666 9.04252 3.82666 9.57496C3.82666 10.1074 3.96577 10.6305 4.23002 11.0916L7.97839 17.6332C8.24238 18.0938 8.62196 18.4764 9.07906 18.7426C9.53616 19.0088 10.0547 19.1493 10.5827 19.1498H18.1096C18.6376 19.1493 19.1561 19.0088 19.6132 18.7426C20.0703 18.4764 20.4499 18.0938 20.7139 17.6332ZM18.1077 17.3077L18.1087 17.3077C18.3165 17.3073 18.5205 17.2519 18.7002 17.1473C18.8802 17.0425 19.0294 16.892 19.1329 16.7112L22.8863 10.1696L22.8868 10.1688C22.9903 9.98792 23.0446 9.78313 23.0446 9.57496C23.0446 9.36659 22.9902 9.1616 22.8865 8.98061L19.1329 2.43856C19.0294 2.25779 18.8802 2.10734 18.7002 2.00252C18.5204 1.89782 18.3164 1.84246 18.1085 1.84211H10.5838C10.3759 1.84246 10.1718 1.89784 9.99203 2.00252C9.81208 2.10732 9.66296 2.25773 9.55937 2.43846L5.811 8.9802C5.7073 9.16114 5.65275 9.36632 5.65275 9.57496C5.65275 9.7836 5.70725 9.98868 5.81094 10.1696L9.55931 16.7112C9.66291 16.892 9.81207 17.0425 9.99203 17.1473C10.1717 17.2519 10.3758 17.3073 10.5836 17.3077L10.5846 17.3077H18.1077Z"
            fill="url(#paint2_linear_641_392)" />
        <path
            d="M17.5327 33.9216L21.2811 40.4632C21.5455 40.9246 21.9259 41.3078 22.3839 41.574C22.842 41.8403 23.3616 41.9802 23.8904 41.9798H31.3922C31.921 41.9802 32.4406 41.8403 32.8987 41.574C33.3567 41.3078 33.7371 40.9246 34.0015 40.4632L37.7499 33.9216C38.0142 33.4605 38.1533 32.9374 38.1533 32.405C38.1533 31.8726 38.0142 31.3495 37.7499 30.8884L34.0015 24.3164C33.7371 23.855 33.3567 23.4719 32.8987 23.2056C32.4406 22.9394 31.921 22.7995 31.3922 22.7998H23.8954C23.3666 22.7995 22.847 22.9394 22.389 23.2056C21.9309 23.4719 21.5505 23.855 21.2861 24.3164L17.5377 30.8884C17.2727 31.3491 17.1327 31.8718 17.1318 32.4043C17.131 32.9367 17.2692 33.4601 17.5327 33.9216Z"
            fill="#2B9348" />
        <path fill-rule="evenodd" clip-rule="evenodd"
            d="M31.3922 22.7998H23.8954C23.3666 22.7995 22.847 22.9394 22.389 23.2056C21.9309 23.4719 21.5505 23.855 21.2861 24.3164L17.5377 30.8884C17.2727 31.3491 17.1327 31.8718 17.1318 32.4043C17.131 32.9367 17.2692 33.4601 17.5327 33.9216L21.2811 40.4632C21.5455 40.9246 21.9259 41.3078 22.3839 41.574C22.842 41.8403 23.3616 41.9802 23.8904 41.9798H31.3922C31.921 41.9802 32.4406 41.8403 32.8987 41.574C33.3567 41.3078 33.7371 40.9246 34.0015 40.4632L37.7499 33.9216C38.0142 33.4605 38.1533 32.9374 38.1533 32.405C38.1533 31.8726 38.0142 31.3495 37.7499 30.8884L34.0015 24.3164C33.7371 23.855 33.3567 23.4719 32.8987 23.2056C32.4406 22.9394 31.921 22.7995 31.3922 22.7998ZM32.4206 25.2384C32.4203 25.2379 32.4201 25.2375 32.4198 25.2371C32.316 25.0564 32.1668 24.9062 31.987 24.8017C31.8068 24.697 31.6021 24.6418 31.3934 24.6419L23.8943 24.6419C23.6855 24.6418 23.4808 24.697 23.3006 24.8017C23.1208 24.9063 22.9715 25.0565 22.8678 25.2371C22.8675 25.2375 22.8673 25.2379 22.867 25.2384L19.1188 31.81L19.1171 31.813C19.0131 31.9938 18.9583 32.1987 18.9579 32.4073C18.9576 32.6157 19.0116 32.8206 19.1146 33.0014C19.1148 33.0017 19.115 33.002 19.1151 33.0023L22.862 39.5413C22.862 39.5413 22.862 39.5413 22.862 39.5413C22.9658 39.7224 23.1153 39.8731 23.2956 39.9779C23.4758 40.0826 23.6805 40.1379 23.8892 40.1377H23.8904H31.3934C31.6021 40.1379 31.8068 40.0826 31.987 39.9779C32.1672 39.8732 32.3166 39.7226 32.4205 39.5414C32.4205 39.5413 32.4205 39.5414 32.4205 39.5414L36.1689 32.9997C36.2726 32.8188 36.3272 32.6136 36.3272 32.405C36.3272 32.1964 36.2727 31.9913 36.169 31.8103L36.1671 31.8071L32.4206 25.2384Z"
            fill="url(#paint3_linear_641_392)" />
    </g>
    <defs>
        <linearGradient id="paint0_linear_641_392" x1="37.0696" y1="9.57898" x2="12.7851"
            y2="15.5402" gradientUnits="userSpaceOnUse">
            <stop stop-color="#EBEE43" />
            <stop offset="1" stop-color="#2B9348" />
        </linearGradient>
        <linearGradient id="paint1_linear_641_392" x1="30.6783" y1="32.4208" x2="6.39538"
            y2="38.3851" gradientUnits="userSpaceOnUse">
            <stop stop-color="#2B9348" />
            <stop offset="1" stop-color="#EBEE43" />
        </linearGradient>
        <linearGradient id="paint2_linear_641_392" x1="24.8347" y1="9.57898" x2="3.65208"
            y2="9.57898" gradientUnits="userSpaceOnUse">
            <stop stop-color="white" stop-opacity="0" />
            <stop offset="1" stop-color="white" />
        </linearGradient>
        <linearGradient id="paint3_linear_641_392" x1="38.1173" y1="32.3939" x2="16.9574"
            y2="32.3939" gradientUnits="userSpaceOnUse">
            <stop stop-color="white" stop-opacity="0" />
            <stop offset="1" stop-color="white" />
        </linearGradient>
        <clipPath id="clip0_641_392">
            <rect width="42" height="42" fill="white" />
        </clipPath>
    </defs>
</svg>